<?xml version="1.0" encoding="utf-8"?>
<!-- Generator: Adobe Illustrator 16.0.0, SVG Export Plug-In . SVG Version: 6.00 Build 0)  -->
<!DOCTYPE svg PUBLIC "-//W3C//DTD SVG 1.1//EN" "http://www.w3.org/Graphics/SVG/1.1/DTD/svg11.dtd">
<svg version="1.1"
	 id="Layer_1" sodipodi:docname="frappe.svg" inkscape:version="0.91 r13725" xmlns:dc="http://purl.org/dc/elements/1.1/" xmlns:cc="http://creativecommons.org/ns#" xmlns:rdf="http://www.w3.org/1999/02/22-rdf-syntax-ns#" xmlns:svg="http://www.w3.org/2000/svg" xmlns:sodipodi="http://sodipodi.sourceforge.net/DTD/sodipodi-0.dtd" xmlns:inkscape="http://www.inkscape.org/namespaces/inkscape"
	 xmlns="http://www.w3.org/2000/svg" xmlns:xlink="http://www.w3.org/1999/xlink" x="0px" y="0px" width="260px" height="260px"
	 viewBox="0 0 260 260" enable-background="new 0 0 260 260" xml:space="preserve">
<sodipodi:namedview  inkscape:cy="130" inkscape:cx="130" inkscape:zoom="1.8230769" showgrid="false" guidetolerance="10" gridtolerance="10" objecttolerance="10" borderopacity="1" pagecolor="#ffffff" bordercolor="#666666" id="namedview69" inkscape:snap-smooth-nodes="true" inkscape:snap-bbox="true" inkscape:current-layer="text3365" inkscape:window-maximized="0" inkscape:window-y="0" inkscape:window-x="0" inkscape:window-height="676" inkscape:window-width="1160" inkscape:pageshadow="2" inkscape:pageopacity="0">
	</sodipodi:namedview>
<g id="g3">
	<g id="g5" transform="translate(5.5084746,2.2033898)">
		<g id="g7" transform="matrix(0.6988869,0,0,0.6988869,38.116279,42.59371)">
			<path id="path9" inkscape:connector-curvature="0" fill="#FFDD8C" d="M223.464,82.762c27.127,55.639,0.524,91.038-60.914,120.997
				c-61.438,29.956-105.714,29.117-132.844-26.521C2.578,121.601,29.182,86.199,90.62,56.242
				C152.06,26.284,196.335,27.126,223.464,82.762z"/>
			
				<animateTransform  fill="remove" type="rotate" restart="always" calcMode="linear" accumulate="none" repeatCount="indefinite" additive="sum" to="360 125 135" from="0 125 135" dur="10s" begin="0s" attributeName="transform" attributeType="XML">
				</animateTransform>
		</g>
	</g>
	<g id="text3365">
		<g id="g5_1_" transform="translate(5.5084746,2.2033898)" display="none">
			<g id="g7_1_" transform="matrix(0.6988869,0,0,0.6988869,38.116279,42.59371)" display="inline">
				<path id="path9_1_" inkscape:connector-curvature="0" fill="#FFDD8C" d="M220.602,84.193
					c27.127,55.639,0.524,91.038-60.914,120.997c-61.438,29.956-105.714,29.117-132.844-26.521
					C-0.284,123.032,26.32,87.63,87.758,57.673C149.198,27.715,193.473,28.557,220.602,84.193z"/>
				
					<animateTransform  fill="remove" type="rotate" restart="always" calcMode="linear" accumulate="none" repeatCount="indefinite" additive="sum" to="360 125 135" from="0 125 135" dur="10s" begin="0s" attributeName="transform" attributeType="XML">
					</animateTransform>
			</g>
		</g>
		<path id="path3431" display="none" fill="#223A4E" d="M4.184,112.706v-0.439c0-0.586,0.146-1.011,0.439-1.274
			c0.322-0.293,0.879-0.439,1.67-0.439h7.075v-4.57c0-4.834,1.025-8.496,3.076-10.986c2.051-2.52,4.995-3.779,8.833-3.779
			c3.193,0,5.566,0.776,7.119,2.329c0.645,0.645,0.967,1.392,0.967,2.241c0,0.439-0.103,0.835-0.308,1.187
			c-0.176,0.352-0.366,0.601-0.571,0.747s-0.337,0.205-0.396,0.176c-0.703-0.82-1.685-1.509-2.944-2.065s-2.549-0.835-3.867-0.835
			c-2.607,0-4.556,0.908-5.845,2.725c-1.26,1.816-1.89,4.658-1.89,8.525v4.307h9.448c1.436,0,2.153,0.571,2.153,1.714v0.439
			c0,1.143-0.718,1.714-2.153,1.714h-9.36v36.914c0,1.377-0.63,2.065-1.89,2.065h-0.483c-1.26,0-1.89-0.688-1.89-2.065V114.42H6.293
			c-0.791,0-1.348-0.132-1.67-0.396C4.331,113.731,4.184,113.292,4.184,112.706z"/>
		<path id="path3433" display="none" fill="#223A4E" d="M37.451,151.334v-40.605c0-0.029,0.059-0.073,0.176-0.132
			c0.146-0.088,0.337-0.161,0.571-0.22s0.469-0.088,0.703-0.088c1.875,0,2.812,1.436,2.812,4.307v5.317
			c1.729-6.826,5.654-10.239,11.777-10.239c1.699,0,3.105,0.337,4.219,1.011c1.143,0.674,1.714,1.538,1.714,2.593
			c0,0.498-0.103,0.938-0.308,1.318c-0.176,0.352-0.366,0.601-0.571,0.747c-0.176,0.146-0.308,0.205-0.396,0.176
			c-1.23-1.143-2.93-1.714-5.098-1.714c-3.721,0-6.533,1.699-8.438,5.098c-1.875,3.369-2.812,8.027-2.812,13.975v18.457
			c0,1.377-0.63,2.065-1.89,2.065h-0.483C38.11,153.399,37.451,152.711,37.451,151.334z"/>
		<path id="path3435" display="none" fill="#223A4E" d="M64.125,142.325c0-4.775,2.432-8.247,7.295-10.415
			c4.893-2.197,12.715-3.369,23.467-3.516h0.923v-2.153c0-3.984-1.157-7.075-3.472-9.272c-2.285-2.227-5.479-3.34-9.58-3.34
			c-3.516,0-6.504,0.747-8.965,2.241c-2.461,1.465-4.307,3.413-5.537,5.845c-0.146,0-0.381-0.044-0.703-0.132
			c-0.293-0.088-0.659-0.337-1.099-0.747c-0.41-0.41-0.615-0.952-0.615-1.626c0-0.469,0.22-1.099,0.659-1.89
			c0.439-0.82,1.025-1.567,1.758-2.241c3.604-3.604,8.525-5.405,14.766-5.405c5.303,0,9.463,1.465,12.48,4.395
			s4.526,6.958,4.526,12.085v26.807c0,0.029-0.073,0.088-0.22,0.176c-0.146,0.059-0.352,0.117-0.615,0.176
			c-0.234,0.059-0.469,0.088-0.703,0.088c-1.787,0-2.681-1.436-2.681-4.307v-4.438c-1.406,2.812-3.618,5.083-6.636,6.812
			c-3.018,1.699-6.445,2.549-10.283,2.549c-4.541,0-8.145-1.055-10.811-3.164C65.444,148.741,64.125,145.899,64.125,142.325z
			 M68.52,142.325c0,2.52,0.952,4.512,2.856,5.977c1.934,1.436,4.556,2.153,7.866,2.153c4.629,0,8.54-1.392,11.733-4.175
			c3.223-2.783,4.834-6.196,4.834-10.239v-4.219h-1.187c-9.316,0.176-15.996,1.069-20.039,2.681S68.52,138.722,68.52,142.325z"/>
		<path id="path3437" display="none" fill="#223A4E" d="M112.158,168.429v-57.7c0-0.029,0.059-0.073,0.176-0.132
			c0.146-0.088,0.337-0.161,0.571-0.22s0.469-0.088,0.703-0.088c1.875,0,2.812,1.436,2.812,4.307v4.702
			c3.809-6.416,9.448-9.624,16.919-9.624c5.742,0,10.547,2.065,14.414,6.196c3.867,4.102,5.801,9.39,5.801,15.864
			c0,6.562-1.934,11.924-5.801,16.084c-3.838,4.131-8.746,6.196-14.723,6.196c-4.042,0-7.514-0.923-10.415-2.769
			s-4.937-4.102-6.108-6.768v23.95c0,1.377-0.63,2.065-1.89,2.065h-0.483C112.817,170.494,112.158,169.806,112.158,168.429z
			 M116.42,134.854c0,4.277,1.567,7.91,4.702,10.898c3.164,2.988,7.017,4.482,11.557,4.482c4.951,0,8.951-1.699,11.998-5.098
			c3.047-3.428,4.57-7.896,4.57-13.403c0-5.273-1.568-9.639-4.703-13.096c-3.105-3.457-7.002-5.186-11.689-5.186
			c-3.955,0-7.338,1.04-10.151,3.12c-2.812,2.051-4.907,4.878-6.284,8.481V134.854z"/>
		<path id="path3439" display="none" fill="#223A4E" d="M163.135,168.429v-57.7c0-0.029,0.059-0.073,0.176-0.132
			c0.146-0.088,0.336-0.161,0.57-0.22s0.469-0.088,0.703-0.088c1.875,0,2.812,1.436,2.812,4.307v4.702
			c3.809-6.416,9.449-9.624,16.92-9.624c5.742,0,10.547,2.065,14.414,6.196c3.867,4.102,5.801,9.39,5.801,15.864
			c0,6.562-1.934,11.924-5.801,16.084c-3.838,4.131-8.746,6.196-14.723,6.196c-4.043,0-7.514-0.923-10.414-2.769
			s-4.938-4.102-6.109-6.768v23.95c0,1.377-0.629,2.065-1.889,2.065h-0.484C163.793,170.494,163.135,169.806,163.135,168.429
			L163.135,168.429z M167.396,134.854c0,4.277,1.568,7.91,4.703,10.898c3.164,2.988,7.016,4.482,11.557,4.482
			c4.951,0,8.951-1.699,11.998-5.098c3.047-3.428,4.57-7.896,4.57-13.403c0-5.273-1.568-9.639-4.703-13.096
			c-3.105-3.457-7.002-5.186-11.689-5.186c-3.955,0-7.338,1.04-10.15,3.12c-2.812,2.051-4.908,4.878-6.285,8.481V134.854z"/>
		<path id="path3441" display="none" fill="#223A4E" d="M211.254,131.998c0-4.189,0.908-7.983,2.725-11.382s4.352-6.064,7.604-7.998
			c3.252-1.963,6.885-2.944,10.898-2.944c5.859,0,10.576,1.919,14.15,5.757c3.604,3.809,5.404,8.818,5.404,15.029v0.439
			c0,0.615-0.146,1.025-0.439,1.23c-0.264,0.205-0.746,0.308-1.449,0.308h-34.674c0.088,5.273,1.744,9.551,4.967,12.832
			c3.252,3.252,7.441,4.878,12.568,4.878c7.266,0,12.348-2.842,15.248-8.525c0.117-0.088,0.367-0.059,0.748,0.088
			c0.41,0.117,0.805,0.396,1.186,0.835s0.572,0.967,0.572,1.582c0,0.498-0.234,1.172-0.703,2.021s-1.143,1.714-2.021,2.593
			c-1.465,1.465-3.502,2.71-6.109,3.735s-5.58,1.538-8.92,1.538c-6.475,0-11.719-2.051-15.732-6.152
			C213.262,143.731,211.254,138.443,211.254,131.998z M215.648,128.746h31.861c-0.176-4.57-1.641-8.262-4.395-11.074
			c-2.725-2.812-6.27-4.219-10.635-4.219s-8.102,1.421-11.207,4.263C218.197,120.558,216.322,124.234,215.648,128.746z
			 M226.986,103.917c-0.088-0.117,0.279-0.674,1.1-1.67s2.08-2.285,3.779-3.867c1.699-1.611,3.5-3.135,5.404-4.57
			c1.758-1.318,3.105-1.978,4.043-1.978c0.557,0,1.025,0.176,1.406,0.527c0.381,0.322,0.572,0.747,0.572,1.274
			c0,0.586-0.25,1.172-0.748,1.758c-0.469,0.586-1.361,1.377-2.68,2.373c-1.963,1.406-3.984,2.637-6.064,3.691
			c-2.051,1.055-3.662,1.772-4.834,2.153S227.133,104.093,226.986,103.917L226.986,103.917z"/>
		<text transform="matrix(1 0 0 1 30.1572 126.4336)" font-family="'Venacti-Bold'" font-size="22.8976">LOVEWORLD</text>
		<text transform="matrix(1.0077 0 0 1 40.2021 158.4082)"><tspan x="0" y="0" fill="#F89937" font-family="'MyriadPro-Bold'" font-size="58.481">y</tspan><tspan x="30.585" y="0" fill="#EB3E37" font-family="'MyriadPro-Bold'" font-size="58.481">nergy</tspan></text>
		
			<text transform="matrix(0.897 -0.459 0.4556 0.8902 18.0596 163.3887)" fill="#01B0EE" font-family="'MyriadPro-Bold'" font-size="64.6996">S</text>
	</g>
</g>
</svg>
